<svg version="1.1" xmlns="http://www.w3.org/2000/svg" style="display: block;" viewBox="0 0 2000 2000" width="500" height="500" preserveAspectRatio="none">
<path transform="translate(0,0)" fill="rgb(238,138,252)" d="M 1061.83 663.239 C 1076.11 662.894 1090.83 674.038 1089.41 689.29 C 1088.4 700.046 1078.76 708.458 1078.29 718.224 C 1077.57 733.16 1077.88 748.818 1077.86 763.836 L 1077.33 844.467 C 1083.54 852.917 1113.99 883.901 1122.16 889.307 C 1138.88 870.957 1157.57 854.509 1174.1 836.541 C 1173.96 824.941 1171.2 759.449 1176.61 752.378 C 1178.55 749.843 1181.17 748.312 1184.37 748.033 C 1188.2 747.7 1193.84 748.953 1196.53 751.931 C 1203.7 759.87 1200.55 832.82 1200.1 847.194 C 1181.7 867.174 1154.82 889.895 1138.77 908.656 C 1142.74 919.339 1148.1 931.646 1152.43 942.36 C 1158.71 937.37 1179.46 915.158 1184.08 913.693 C 1198.07 909.262 1237.94 911.1 1252.93 911.148 C 1258.8 906.029 1262.69 902.371 1270.4 900.022 C 1284.71 895.663 1298.51 903.1 1301.93 917.973 C 1303.59 925.407 1302 933.196 1297.58 939.394 C 1284.45 958.068 1266.83 947.977 1253.06 937.631 C 1239.71 935.89 1210.64 936.945 1195.47 936.784 C 1189.02 941.334 1168.51 962.8 1161.78 969.538 C 1166.12 979.671 1174.57 997.843 1172.58 1008.78 C 1171.52 1014.66 1120.02 1062.28 1112.56 1068.2 C 1119 1075.08 1127.17 1082.24 1134.04 1088.95 L 1171.27 1125.92 C 1179.11 1133.63 1194.74 1148.2 1200.2 1157.15 C 1200.36 1171 1203.35 1242.13 1197.22 1248.8 C 1194.66 1251.59 1188.09 1254.38 1184.27 1253.8 C 1181.99 1253.45 1180.05 1252.05 1178.61 1250.31 C 1170.31 1240.32 1173.37 1181.73 1174.56 1167.35 C 1169.26 1159.65 1153.16 1144.33 1145.82 1137.06 L 1094.07 1086.21 C 1082.97 1099.4 1063.54 1118.02 1050.62 1129.6 C 1059.28 1137.89 1069.04 1147.18 1076.92 1156.09 C 1079.7 1193.68 1077.6 1251.69 1077.73 1290.7 C 1081.3 1295.73 1087.12 1303.19 1088.71 1308.83 C 1097.89 1341.33 1046.98 1354.08 1039.18 1321.45 C 1036.49 1310.16 1043.92 1299.69 1049.92 1290.78 C 1051.3 1268.68 1049.89 1242.85 1050.42 1220.33 C 1050.81 1203.96 1050.6 1185.98 1050.23 1169.58 C 1050.14 1167.4 1049.27 1165.22 1047.97 1163.5 C 1034.58 1145.84 1013.22 1132.38 1000.94 1114.03 C 989.162 1129.27 965.037 1149.18 951.038 1165.55 C 950.162 1180.13 950.688 1199.05 950.685 1213.93 L 950.42 1291.12 C 957.015 1300.02 959.45 1302.51 962.018 1313.28 C 962.494 1348.55 912.73 1349.94 911.187 1315.92 C 910.87 1304.27 922.652 1295.49 922.931 1284.06 C 923.844 1246.7 922.766 1209.21 923.051 1171.82 C 923.099 1165.66 923.416 1156.84 927.289 1151.93 C 933.625 1143.91 941.778 1136.71 949.179 1129.61 C 941.139 1122.87 913.228 1094.28 905.91 1086.18 C 899.298 1094.01 887.066 1105.57 879.564 1113.08 L 826.581 1165.92 C 827.13 1177.3 828.625 1242.96 823.557 1248.93 C 821.538 1251.31 816.007 1253.55 812.932 1253.49 C 809.416 1253.42 805.632 1251.77 803.266 1249.13 C 797.593 1242.83 799.397 1176.06 800.12 1164.22 C 800.339 1160.63 800.547 1156.56 802.57 1153.52 C 808.386 1144.77 818.33 1136.95 825.744 1129.46 C 845.847 1109.15 865.752 1087.97 887.228 1069.12 C 871.402 1053.82 842.561 1026.5 828.187 1009.59 C 823.975 1004.63 835.84 976.6 839.216 969.339 C 829.688 961.62 814.258 946.043 805.849 936.874 C 786.397 936.741 766.945 936.745 747.494 936.886 C 740.693 941.056 735.707 947.622 727.588 949.641 C 712.886 953.296 701.017 942.189 698.691 927.946 C 697.472 920.425 699.506 912.74 704.284 906.806 C 716.866 891.226 735.138 900.358 747.115 911.176 C 764.605 909.947 784.179 911.841 801.938 910.852 C 821.053 909.788 836.702 931.186 848.501 943.944 C 851.345 934.01 858.039 916.688 863.201 907.887 C 854.49 902.757 807.9 855.586 800.389 846.509 C 799.76 833.029 797.433 760.424 802.845 752.782 C 804.652 750.23 807.83 748.423 810.912 748.019 C 814.674 747.525 819.741 748.825 822.447 751.576 C 830.152 759.407 826.809 822.84 826.529 836.625 C 831.608 842.97 842.174 852.797 848.304 858.79 C 858.838 869.01 869.247 879.359 879.528 889.834 C 893.535 874.53 909.411 860.408 923.124 845.111 C 923.885 834.987 923.25 821.926 923.133 811.039 C 922.789 779.111 924.043 746.129 922.25 714.248 C 920.471 705.43 912.015 698.283 911.114 689.096 C 909.729 674.961 925.376 661.397 939.078 663.565 C 950.961 665.446 962.151 675.13 961.843 687.916 C 961.577 698.998 957.373 704.217 950.688 711.363 C 951.104 749.626 952.252 803.695 949.628 841.104 C 983.503 840.898 1017.38 840.976 1051.25 841.336 C 1049.64 828.186 1050.28 807.552 1050.28 793.706 L 1050.16 712.411 C 1043.7 702.697 1035.98 693.033 1039.37 680.778 C 1042.58 669.126 1051.62 665.88 1061.83 663.239 z M 898.116 906.462 C 908.792 918.573 928.901 935.418 937.091 945.789 C 933.77 981.722 922.65 1023.81 916.715 1060.27 C 927.863 1071.94 936.51 1080.7 948.343 1091.6 C 954.469 1098.2 961.284 1105.17 966.578 1112.38 L 987.437 1091 C 986.563 1060.15 986.008 1026.64 987.032 995.808 C 988.416 954.118 984.2 907.674 987.449 866.674 C 972.139 867.145 953.77 867.395 938.389 867.102 C 927.43 877.297 908.768 898.818 898.116 906.462 z M 1013.71 1090.55 C 1017.93 1096.8 1027.8 1106.23 1033.43 1111.98 C 1047.06 1096.76 1063.77 1080.57 1078.28 1065.93 C 1080.55 1063.46 1082.9 1060.99 1084.99 1058.38 C 1081.46 1047.32 1062.55 951.877 1064.9 946.253 C 1068.91 936.632 1093.95 915.897 1102.3 906.398 C 1090.49 896.354 1071.85 874.69 1060.54 867.009 L 1013.41 866.688 C 1015.51 890.334 1014.39 935.399 1014.13 960.708 C 1013.69 1002.51 1015.31 1049.38 1013.71 1090.55 z M 1117.51 928.063 C 1109.18 938.705 1098.42 946.028 1090.33 955.341 C 1094.57 972.334 1106.51 1023.45 1106.1 1039.48 C 1107.06 1038.57 1113.25 1032.81 1113.7 1032.21 C 1124.69 1021.85 1135.45 1011.25 1145.98 1000.43 C 1141.42 988.854 1123.25 933.11 1118.02 928.148 L 1117.51 928.063 z M 855.067 1000.18 C 865.323 1012.03 878.568 1024.45 890.028 1035.32 L 892.258 1037.8 L 893.615 1037.63 C 899.197 1015.74 904.205 973.12 910.606 956.162 C 906.613 952.139 884.62 929.808 881.178 927.364 C 872.129 951.577 864.126 976.267 855.067 1000.18 z"/>
</svg>